<svg version="1.2" xmlns="http://www.w3.org/2000/svg" viewBox="0 0 1640 664" width="1640" height="664">
	<title>New Project</title>
	<style>
		.s0 { fill: #ffffff } 
	</style>
	<g id="Layer 1">
		<path id="&lt;Path&gt;" fill-rule="evenodd" class="s0" d="m138.3 238.4q8.7 3.8 16.3 11.4l-15.2 15.1q-7.6-9.1-21.2-9.1-13.7 0-17.5 6.5-3.8 6.4 0 11 3.8 4.6 17.5 6.8 14.4 1.5 26.2 9.5 11.7 8 11.7 25.4 0 13.7-12.5 23.6-12.6 9.9-29.3 9.9-15.9 0-26.5-4.6-10.6-4.6-18.2-12.1l15.2-15.2q7.6 9.1 25.8 10.6 15.2 0 18.9-6.5 3.8-6.4 0-12.9-3.7-6.4-18.9-7.9-13.7-1.6-25.1-8.4-11.4-6.8-11.4-23.5 0-15.1 13-24.3 12.9-9.1 26.6-9.1 15.8 0 24.6 3.8z"/>
		<path id="&lt;Compound Path&gt;" fill-rule="evenodd" class="s0" d="m184.3 348.5l45.6-113.9h22.7l45.5 113.8-24.2 0.1-6.8-17.5h-51.7l-6.8 17.5zm57.6-83.6l-17.4 43.3h34.2z"/>
		<path id="&lt;Path&gt;" fill-rule="evenodd" class="s0" d="m355.6 234.6v92.6h60.8v21.3h-83.5v-113.9z"/>
		<path id="&lt;Path&gt;" fill-rule="evenodd" class="s0" d="m528.3 234.6v21.2h-37.9v92.7h-22.8v-92.7h-38v-21.2z"/>
		<path id="&lt;Path&gt;" fill-rule="evenodd" class="s0" d="m559.6 234.6h26.7l26.4 37.2 27-37.2h26.2l-41.8 56.9v57h-22.8v-57z"/>
		<path id="&lt;Path&gt;" fill-rule="evenodd" class="s0" d="m701.1 332.1q-16.3-16.3-16.3-40.8 0-24 16.4-40.4 16.3-16.3 40.4-16.3 24.4 0 41.8 15.2l-15.1 16.6q-11.6-9.1-26.7-9.1-15.3 0-24.7 9.5-9.4 9.5-9.4 24.3 0.1 15.9 9.5 25.2 9.4 9.4 24.8 9.4 15.3 0 26.5-9l15.1 16.6q-17.3 15.2-41.8 15.2-24.1-0.1-40.5-16.4z"/>
		<path id="&lt;Path&gt;" fill-rule="evenodd" class="s0" d="m843.7 234.6v66q0 12.9 7.6 19 7.6 6.1 19 6.1 11.3 0 18.9-6.1 7.6-6.1 7.6-19v-66h22.8v72.1q0 17.5-14 29.6-14.1 12.2-35.3 12.2-21.3 0-35.4-12.2-14-12.1-14-29.6v-72.1z"/>
		<path id="&lt;Path&gt;" fill-rule="evenodd" class="s0" d="m1023.6 238.4q8.8 3.8 16.3 11.4l-15.1 15.1q-7.6-9.1-21.3-9.1-13.6 0-17.5 6.5-3.7 6.4 0 11 3.9 4.6 17.5 6.8 14.4 1.5 26.2 9.5 11.8 8 11.8 25.4 0 13.7-12.6 23.6-12.6 9.9-29.3 9.9-15.8 0-26.5-4.6-10.6-4.6-18.2-12.1l15.2-15.2q7.6 9.1 25.8 10.6 15.2 0 19-6.5 3.7-6.4 0-12.9-3.8-6.4-19-7.9-13.7-1.6-25-8.4-11.4-6.8-11.4-23.5 0-15.1 12.9-24.3 13-9.1 26.6-9.1 15.9 0 24.6 3.8z"/>
		<path id="&lt;Path&gt;" fill-rule="evenodd" class="s0" d="m1172.9 234.6v21.2h-38v92.7h-22.8v-92.7h-37.9v-21.2z"/>
		<path id="&lt;Compound Path&gt;" fill-rule="evenodd" class="s0" d="m1215.8 332.1q-16.3-16.4-16.3-40.6 0-24.3 16.3-40.6 16.3-16.3 40.6-16.3 24.3 0 40.6 16.3 16.3 16.3 16.3 40.6c0 16.2-5.4 29.7-16.3 40.6q-16.3 16.4-40.6 16.4-24.3 0-40.6-16.4zm40.7-4.9q15.1 0 24.6-10.2 9.5-10.3 9.5-25.5 0-15.2-9.5-25.4-9.5-10.3-24.8-10.3-15.1 0-24.6 10.3-9.5 10.2-9.5 25.4 0 15.2 9.5 25.5 9.5 10.2 24.8 10.2z"/>
		<path id="&lt;Path&gt;" fill-rule="evenodd" class="s0" d="m1351.4 348.5v-113.9h7.6l49.4 56.2 49.4-56.2h7.6v113.9h-22.8l-0.1-66.1-34.1 38-34.2-38v66.1z"/>
		<path id="&lt;Path&gt;" fill-rule="evenodd" class="s0" d="m1570.1 238.4q8.7 3.8 16.3 11.4l-15.2 15.1q-7.6-9.1-21.2-9.1-13.7 0-17.5 6.5-3.8 6.4 0 11 3.8 4.6 17.5 6.8 14.4 1.5 26.2 9.5 11.7 8 11.7 25.4 0 13.7-12.5 23.6-12.6 9.9-29.3 9.9-15.9 0-26.5-4.6-10.6-4.6-18.2-12.1l15.2-15.2q7.5 9.1 25.8 10.6 15.2 0 18.9-6.5 3.8-6.4 0-12.9-3.7-6.4-18.9-7.9-13.7-1.6-25.1-8.4-11.4-6.8-11.4-23.5 0-15.1 13-24.3 12.9-9.1 26.6-9.1 15.9 0 24.6 3.8z"/>
		<path id="&lt;Compound Path&gt;" fill-rule="evenodd" class="s0" d="m299.6 423.3l-4.5 5.5c-3.3-3.5-8-5.7-12.6-5.7-9.1 0-16.2 7-16.2 15.9 0 9 7.1 16 16.2 16 4.5 0 9.2-2 12.6-5.3l4.6 5c-4.6 4.6-11.2 7.5-17.6 7.5-13.3 0-23.6-10.1-23.6-23.1 0-12.9 10.4-22.8 23.8-22.8 6.5 0 12.9 2.6 17.3 7z"/>
		<path id="&lt;Compound Path&gt;" fill-rule="evenodd" class="s0" d="m335.3 462.2c-13.4 0-24.1-10.3-24.1-23 0-12.7 10.7-22.9 24.1-22.9 13.3 0 24 10.2 24 22.9 0 12.7-10.7 23-24 23zm-0.1-6.9c-9 0-16.2-7.2-16.2-16.1 0-8.9 7.2-16.1 16.2-16.1 9 0 16.3 7.2 16.3 16.1 0 8.9-7.3 16.1-16.3 16.1z"/>
		<path id="&lt;Compound Path&gt;" fill-rule="evenodd" class="s0" d="m416.8 461.9v-34l-14.4 29.2h-5l-14.3-29.2v34h-7.2v-45.5h9.1l15 30.2 14.9-30.2h9v45.5z"/>
		<path id="&lt;Compound Path&gt;" fill-rule="evenodd" class="s0" d="m485.3 461.9v-34l-14.4 29.2h-5l-14.3-29.2v34h-7.2v-45.5h9.1l15 30.2 14.9-30.2h9v45.5z"/>
		<path id="&lt;Compound Path&gt;" fill-rule="evenodd" class="s0" d="m520.5 416.4v45.5h-7.6v-45.5z"/>
		<path id="&lt;Compound Path&gt;" fill-rule="evenodd" class="s0" d="m557.6 423.3v38.6h-7.7v-38.6h-14.3v-6.9h36.4v6.9z"/>
		<path id="&lt;Compound Path&gt;" fill-rule="evenodd" class="s0" d="m603.6 423.3v38.6h-7.7v-38.6h-14.3v-6.9h36.3v6.9z"/>
		<path id="&lt;Compound Path&gt;" fill-rule="evenodd" class="s0" d="m640.6 423.3v12.3h22.1v6.9h-22.1v12.5h25.5v6.9h-33.2v-45.5h32.4v6.9z"/>
		<path id="&lt;Compound Path&gt;" fill-rule="evenodd" class="s0" d="m702.5 416.4c13.7 0 23.5 9.6 23.5 22.7 0 13.2-9.9 22.8-23.7 22.8h-18.4v-45.5zm-10.9 38.6h11.1c8.8 0 15.6-6.6 15.6-15.8 0-9.3-7-15.9-15.9-15.9h-10.8z"/>
		<path id="&lt;Compound Path&gt;" fill-rule="evenodd" class="s0" d="m784.5 423.3v38.6h-7.7v-38.6h-14.3v-6.9h36.4v6.9z"/>
		<path id="&lt;Compound Path&gt;" fill-rule="evenodd" class="s0" d="m831.4 462.2c-13.3 0-24.1-10.3-24.1-23 0-12.7 10.8-22.9 24.1-22.9 13.3 0 24.1 10.2 24.1 22.9 0 12.7-10.8 23-24.1 23zm0-6.9c-9 0-16.3-7.2-16.3-16.1 0-8.9 7.3-16.1 16.3-16.1 8.9 0 16.2 7.2 16.2 16.1 0 8.9-7.3 16.1-16.2 16.1z"/>
		<path id="&lt;Compound Path&gt;" fill-rule="evenodd" class="s0" d="m904.9 423.3v12.3h22.2v6.9h-22.2v12.5h25.5v6.9h-33.2v-45.5h32.5v6.9z"/>
		<path id="&lt;Compound Path&gt;" fill-rule="evenodd" class="s0" d="m985.8 461.9h-9.1l-12.3-17.2-12.2 17.2h-8.9l16.5-23.3-15.4-22.2h8.9l11.1 15.8 11.2-15.8h8.9l-15.2 21.8z"/>
		<path id="&lt;Compound Path&gt;" fill-rule="evenodd" class="s0" d="m1037.8 423.3l-4.5 5.5c-3.3-3.5-8-5.7-12.6-5.7-9.1 0-16.2 7-16.2 15.9 0 9 7.1 16 16.2 16 4.5 0 9.2-2 12.6-5.3l4.6 5c-4.6 4.6-11.2 7.5-17.6 7.5-13.3 0-23.6-10.1-23.6-23.1 0-12.9 10.4-22.8 23.9-22.8 6.4 0 12.8 2.6 17.2 7z"/>
		<path id="&lt;Compound Path&gt;" fill-rule="evenodd" class="s0" d="m1061.8 423.3v12.3h22.2v6.9h-22.2v12.5h25.5v6.9h-33.2v-45.5h32.5v6.9z"/>
		<path id="&lt;Compound Path&gt;" fill-rule="evenodd" class="s0" d="m1132.5 454.9v7h-27.3v-45.5h7.6v38.5z"/>
		<path id="&lt;Compound Path&gt;" fill-rule="evenodd" class="s0" d="m1175.6 454.9v7h-27.3v-45.5h7.6v38.5z"/>
		<path id="&lt;Compound Path&gt;" fill-rule="evenodd" class="s0" d="m1198.9 423.3v12.3h22.2v6.9h-22.2v12.5h25.6v6.9h-33.2v-45.5h32.4v6.9z"/>
		<path id="&lt;Compound Path&gt;" fill-rule="evenodd" class="s0" d="m1274.2 461.9l-24.2-32.6v32.6h-7.7v-45.5h7.5l24.4 32.7v-32.7h7.5v45.5z"/>
		<path id="&lt;Compound Path&gt;" fill-rule="evenodd" class="s0" d="m1339.5 423.3l-4.4 5.5c-3.4-3.5-8.1-5.7-12.7-5.7-9.1 0-16.2 7-16.2 15.9 0 9 7.1 16 16.2 16 4.5 0 9.2-2 12.7-5.3l4.5 5c-4.6 4.6-11.2 7.5-17.6 7.5-13.3 0-23.6-10.1-23.6-23.1 0-12.9 10.4-22.8 23.9-22.8 6.4 0 12.8 2.6 17.2 7z"/>
		<path id="&lt;Compound Path&gt;" fill-rule="evenodd" class="s0" d="m1363.5 423.3v12.3h22.2v6.9h-22.2v12.5h25.6v6.9h-33.3v-45.5h32.5v6.9z"/>
	</g>
</svg>